<?xml version="1.0" encoding="utf-8"?>
<svg viewBox="0 0 498.9 158" data-v-6ddce0e5="" xmlns="http://www.w3.org/2000/svg">
  <g data-v-6ddce0e5="" transform="matrix(1, 0, 0, 1, -0.001472, -0.033854)">
    <path d="m195.6 128.5l9.2-4.8v1.5c0 0.1 0 0.3-0.1 0.4s-0.2 0.2-0.3 0.3l-5.4 2.7c-0.2 0.1-0.3 0.2-0.5 0.2-0.2 0.1-0.4 0.1-0.6 0.2 0.2 0 0.4 0.1 0.6 0.2s0.3 0.1 0.5 0.2l5.4 2.7c0.2 0.1 0.3 0.2 0.3 0.3s0.1 0.2 0.1 0.3v1.5l-9.2-4.8v-0.9z" class="st0" data-v-6ddce0e5="" style="fill: rgb(135, 132, 131);"/>
    <path d="m220.2 137h-0.9c-0.2 0-0.4 0-0.5-0.1s-0.2-0.2-0.3-0.4l-0.2-1.1c-0.3 0.3-0.6 0.5-0.9 0.8-0.3 0.2-0.6 0.4-1 0.6s-0.7 0.3-1.1 0.4-0.8 0.1-1.3 0.1-0.9-0.1-1.3-0.2-0.8-0.3-1.1-0.6-0.5-0.6-0.7-1-0.3-0.9-0.3-1.4 0.1-0.9 0.4-1.4c0.3-0.4 0.7-0.8 1.3-1.2 0.6-0.3 1.3-0.6 2.3-0.8s2.1-0.3 3.5-0.3v-0.9c0-0.9-0.2-1.7-0.6-2.1-0.4-0.5-1-0.7-1.8-0.7-0.5 0-1 0.1-1.3 0.2-0.4 0.1-0.7 0.3-0.9 0.4s-0.5 0.3-0.7 0.4-0.4 0.2-0.6 0.2c-0.1 0-0.3 0-0.4-0.1l-0.3-0.3-0.4-0.7c0.7-0.6 1.4-1.1 2.2-1.4s1.6-0.5 2.6-0.5c0.7 0 1.3 0.1 1.8 0.3s1 0.5 1.3 0.9 0.6 0.9 0.8 1.4c0.2 0.6 0.3 1.2 0.3 1.9v7.6zm-5.5-1.3c0.4 0 0.7 0 1-0.1s0.6-0.2 0.9-0.3 0.5-0.3 0.8-0.5 0.5-0.4 0.7-0.7v-2.5c-1 0-1.8 0.1-2.5 0.2s-1.2 0.3-1.7 0.5c-0.4 0.2-0.7 0.4-0.9 0.7s-0.3 0.6-0.3 0.9 0.1 0.6 0.2 0.8 0.2 0.4 0.4 0.6c0.2 0.1 0.4 0.3 0.6 0.3 0.3 0 0.5 0.1 0.8 0.1z" class="st0" data-v-6ddce0e5="" style="fill: rgb(135, 132, 131);"/>
    <path d="m225.4 137v-12.1h1.3c0.3 0 0.5 0.1 0.6 0.4l0.2 1.3c0.5-0.6 1.1-1 1.8-1.4 0.6-0.4 1.4-0.5 2.2-0.5 0.7 0 1.2 0.1 1.7 0.3s0.9 0.5 1.3 0.9c0.3 0.4 0.6 0.9 0.8 1.5s0.3 1.2 0.3 1.9v7.7h-2.1v-7.7c0-0.9-0.2-1.6-0.6-2.1s-1.1-0.8-1.9-0.8c-0.6 0-1.2 0.2-1.8 0.5-0.5 0.3-1 0.7-1.5 1.2v8.9h-2.3z" class="st0" data-v-6ddce0e5="" style="fill: rgb(135, 132, 131);"/>
    <path d="m243.4 121.1c0 0.2 0 0.4-0.1 0.6s-0.2 0.3-0.3 0.5c-0.1 0.1-0.3 0.2-0.5 0.3s-0.4 0.1-0.6 0.1-0.4 0-0.6-0.1-0.3-0.2-0.5-0.3c-0.1-0.1-0.2-0.3-0.3-0.5s-0.1-0.4-0.1-0.6 0-0.4 0.1-0.6 0.2-0.3 0.3-0.5c0.1-0.1 0.3-0.2 0.5-0.3s0.4-0.1 0.6-0.1 0.4 0 0.6 0.1 0.3 0.2 0.5 0.3c0.1 0.1 0.3 0.3 0.3 0.5s0.1 0.4 0.1 0.6zm-0.5 3.8v12.1h-2.1v-12.1h2.1z" class="st0" data-v-6ddce0e5="" style="fill: rgb(135, 132, 131);"/>
    <path d="m248.5 137v-12.1h1.3c0.3 0 0.5 0.1 0.6 0.4l0.2 1.2c0.4-0.5 0.9-1 1.5-1.3s1.2-0.5 1.9-0.5c0.8 0 1.5 0.2 2 0.7s0.9 1.1 1.1 1.8c0.2-0.4 0.4-0.8 0.7-1.1s0.6-0.6 0.9-0.8 0.7-0.4 1.1-0.5 0.8-0.1 1.2-0.1c0.6 0 1.2 0.1 1.7 0.3s0.9 0.5 1.3 0.9c0.3 0.4 0.6 0.9 0.8 1.4 0.2 0.6 0.3 1.2 0.3 2v7.7h-2.1v-7.7c0-0.9-0.2-1.7-0.6-2.2s-1-0.7-1.8-0.7c-0.3 0-0.7 0.1-1 0.2s-0.6 0.3-0.8 0.5-0.4 0.5-0.6 0.9c-0.1 0.4-0.2 0.8-0.2 1.3v7.7h-2.1v-7.7c0-1-0.2-1.7-0.6-2.2s-1-0.7-1.7-0.7c-0.5 0-1 0.1-1.5 0.4s-0.9 0.7-1.2 1.2v9h-2.4z" class="st0" data-v-6ddce0e5="" style="fill: rgb(135, 132, 131);"/>
    <path d="m274.8 124.7c0.7 0 1.4 0.1 2 0.4 0.6 0.2 1.1 0.6 1.6 1 0.4 0.5 0.8 1 1 1.7s0.4 1.4 0.4 2.3c0 0.3 0 0.6-0.1 0.7s-0.2 0.2-0.4 0.2h-8c0 0.8 0.1 1.4 0.3 2s0.5 1 0.8 1.4 0.7 0.7 1.2 0.8c0.5 0.2 1 0.3 1.6 0.3 0.5 0 1-0.1 1.4-0.2s0.7-0.3 1-0.4 0.5-0.3 0.7-0.4 0.3-0.2 0.5-0.2 0.3 0.1 0.4 0.2l0.6 0.8c-0.3 0.3-0.6 0.6-0.9 0.8l-1.2 0.6s-0.8 0.3-1.3 0.3-0.9 0.1-1.3 0.1c-0.8 0-1.6-0.1-2.3-0.4s-1.3-0.7-1.8-1.2-0.9-1.2-1.2-2-0.4-1.7-0.4-2.8c0-0.8 0.1-1.6 0.4-2.4 0.3-0.7 0.6-1.4 1.1-1.9s1.1-1 1.8-1.3c0.5-0.2 1.2-0.4 2.1-0.4zm0.1 1.6c-1 0-1.8 0.3-2.4 0.9s-1 1.4-1.1 2.5h6.6c0-0.5-0.1-0.9-0.2-1.4s-0.3-0.8-0.6-1.1-0.6-0.5-1-0.7c-0.4-0.1-0.8-0.2-1.3-0.2zm3.4-6.6l-2.8 3.1-0.3 0.3s-0.2 0.1-0.4 0.1h-1.3l1.8-2.9c0.1-0.2 0.2-0.3 0.4-0.4 0.1-0.1 0.3-0.1 0.6-0.1h2z" class="st0" data-v-6ddce0e5="" style="fill: rgb(135, 132, 131);"/>
    <path d="m291.4 126.9c-0.1 0.2-0.2 0.3-0.4 0.3-0.1 0-0.3 0-0.4-0.1-0.2-0.1-0.3-0.2-0.6-0.3-0.2-0.1-0.5-0.2-0.8-0.3s-0.7-0.1-1.1-0.1-0.7 0-1 0.1-0.5 0.2-0.7 0.4-0.4 0.3-0.5 0.6c-0.1 0.2-0.2 0.4-0.2 0.7s0.1 0.6 0.3 0.8 0.4 0.4 0.7 0.5c0.3 0.2 0.6 0.3 1 0.4s0.8 0.2 1.2 0.4c0.4 0.1 0.8 0.3 1.2 0.4 0.4 0.2 0.7 0.4 1 0.6s0.5 0.5 0.7 0.9c0.2 0.3 0.3 0.8 0.3 1.2 0 0.6-0.1 1.1-0.3 1.5-0.2 0.5-0.5 0.9-0.9 1.2s-0.9 0.6-1.4 0.8c-0.6 0.2-1.2 0.3-2 0.3s-1.6-0.1-2.3-0.4-1.3-0.6-1.7-1.1l0.5-0.8c0.1-0.1 0.1-0.2 0.2-0.2 0.1-0.1 0.2-0.1 0.3-0.1s0.3 0.1 0.5 0.2 0.4 0.2 0.6 0.4c0.2 0.1 0.5 0.3 0.8 0.4s0.7 0.2 1.2 0.2c0.4 0 0.8-0.1 1.1-0.2s0.6-0.3 0.8-0.4c0.2-0.2 0.4-0.4 0.5-0.6s0.1-0.5 0.1-0.8-0.1-0.6-0.3-0.8-0.4-0.4-0.7-0.6-0.6-0.3-1-0.4-0.8-0.2-1.2-0.4c-0.4-0.1-0.8-0.3-1.2-0.4-0.4-0.2-0.7-0.4-1-0.6s-0.5-0.6-0.7-0.9c-0.2-0.4-0.3-0.8-0.3-1.3s0.1-0.9 0.3-1.3 0.5-0.8 0.8-1.1c0.4-0.3 0.8-0.6 1.3-0.8s1.1-0.3 1.8-0.3c0.8 0 1.5 0.1 2.1 0.4 0.6 0.2 1.2 0.6 1.6 1l-0.2 0.6z" class="st0" data-v-6ddce0e5="" style="fill: rgb(135, 132, 131);"/>
    <path d="m303.2 141.1v-16.2h1.3c0.3 0 0.5 0.1 0.6 0.4l0.2 1.4c0.5-0.6 1.1-1.1 1.8-1.5s1.4-0.6 2.3-0.6c0.7 0 1.3 0.1 1.9 0.4s1 0.7 1.4 1.2 0.7 1.2 0.9 1.9 0.3 1.7 0.3 2.7c0 0.9-0.1 1.7-0.4 2.5-0.2 0.8-0.6 1.4-1 2s-1 1-1.6 1.3-1.4 0.5-2.2 0.5c-0.7 0-1.4-0.1-1.9-0.4-0.5-0.2-1-0.6-1.4-1v5.3h-2.2zm5.4-14.7c-0.7 0-1.3 0.2-1.8 0.5s-1 0.8-1.4 1.3v5.8c0.4 0.5 0.8 0.9 1.3 1.1s1 0.3 1.6 0.3c1.1 0 2-0.4 2.6-1.2s0.9-1.9 0.9-3.4c0-0.8-0.1-1.5-0.2-2s-0.3-1-0.6-1.4-0.6-0.6-1-0.8c-0.5-0.1-0.9-0.2-1.4-0.2z" class="st0" data-v-6ddce0e5="" style="fill: rgb(135, 132, 131);"/>
    <path d="m327.2 137h-0.9c-0.2 0-0.4 0-0.5-0.1s-0.2-0.2-0.3-0.4l-0.2-1.1c-0.3 0.3-0.6 0.5-0.9 0.8-0.3 0.2-0.6 0.4-1 0.6s-0.7 0.3-1.1 0.4-0.8 0.1-1.3 0.1-0.9-0.1-1.3-0.2-0.8-0.3-1.1-0.6-0.5-0.6-0.7-1-0.3-0.9-0.3-1.4 0.1-0.9 0.4-1.4c0.3-0.4 0.7-0.8 1.3-1.2 0.6-0.3 1.3-0.6 2.3-0.8s2.1-0.3 3.5-0.3v-0.9c0-0.9-0.2-1.7-0.6-2.1-0.4-0.5-1-0.7-1.8-0.7-0.5 0-1 0.1-1.3 0.2-0.4 0.1-0.7 0.3-0.9 0.4s-0.5 0.3-0.7 0.4-0.4 0.2-0.6 0.2c-0.1 0-0.3 0-0.4-0.1l-0.3-0.3-0.4-0.7c0.7-0.6 1.4-1.1 2.2-1.4s1.6-0.5 2.6-0.5c0.7 0 1.3 0.1 1.8 0.3s1 0.5 1.3 0.9 0.6 0.9 0.8 1.4c0.2 0.6 0.3 1.2 0.3 1.9v7.6zm-5.5-1.3c0.4 0 0.7 0 1-0.1s0.6-0.2 0.9-0.3 0.5-0.3 0.8-0.5 0.5-0.4 0.7-0.7v-2.5c-1 0-1.8 0.1-2.5 0.2s-1.2 0.3-1.7 0.5c-0.4 0.2-0.7 0.4-0.9 0.7s-0.3 0.6-0.3 0.9 0.1 0.6 0.2 0.8 0.2 0.4 0.4 0.6c0.2 0.1 0.4 0.3 0.6 0.3s0.5 0.1 0.8 0.1z" class="st0" data-v-6ddce0e5="" style="fill: rgb(135, 132, 131);"/>
    <path d="m332.3 137v-12.1h1.2c0.2 0 0.4 0 0.5 0.1s0.1 0.2 0.2 0.5l0.1 1.9c0.4-0.8 0.9-1.5 1.5-2s1.3-0.7 2.1-0.7c0.3 0 0.6 0 0.9 0.1s0.5 0.2 0.8 0.3l-0.3 1.6c-0.1 0.2-0.2 0.3-0.4 0.3-0.1 0-0.3 0-0.5-0.1s-0.6-0.1-1-0.1c-0.7 0-1.4 0.2-1.9 0.6s-0.9 1.1-1.2 1.9v7.7h-2z" class="st0" data-v-6ddce0e5="" style="fill: rgb(135, 132, 131);"/>
    <path d="m352.7 119.4v17.6h-2.1v-17.6h2.1z" class="st0" data-v-6ddce0e5="" style="fill: rgb(135, 132, 131);"/>
    <path d="m367.2 137h-0.9c-0.2 0-0.4 0-0.5-0.1s-0.2-0.2-0.3-0.4l-0.2-1.1c-0.3 0.3-0.6 0.5-0.9 0.8-0.3 0.2-0.6 0.4-1 0.6s-0.7 0.3-1.1 0.4-0.8 0.1-1.3 0.1-0.9-0.1-1.3-0.2-0.8-0.3-1.1-0.6-0.5-0.6-0.7-1-0.3-0.9-0.3-1.4 0.1-0.9 0.4-1.4c0.3-0.4 0.7-0.8 1.3-1.2 0.6-0.3 1.3-0.6 2.3-0.8s2.1-0.3 3.5-0.3v-0.9c0-0.9-0.2-1.7-0.6-2.1s-1-0.7-1.8-0.7c-0.5 0-1 0.1-1.3 0.2-0.4 0.1-0.7 0.3-0.9 0.4-0.3 0.2-0.5 0.3-0.7 0.4s-0.4 0.2-0.6 0.2c-0.1 0-0.3 0-0.4-0.1l-0.3-0.3-0.4-0.7c0.7-0.6 1.4-1.1 2.2-1.4s1.6-0.5 2.6-0.5c0.7 0 1.3 0.1 1.8 0.3s1 0.5 1.3 0.9c0.4 0.4 0.6 0.9 0.8 1.4 0.2 0.6 0.3 1.2 0.3 1.9v7.6zm-5.5-1.3c0.4 0 0.7 0 1-0.1s0.6-0.2 0.9-0.3 0.5-0.3 0.8-0.5c0.2-0.2 0.5-0.4 0.7-0.7v-2.5c-1 0-1.8 0.1-2.5 0.2s-1.2 0.3-1.7 0.5c-0.4 0.2-0.7 0.4-0.9 0.7s-0.3 0.6-0.3 0.9 0.1 0.6 0.2 0.8 0.2 0.4 0.4 0.6c0.2 0.1 0.4 0.3 0.6 0.3 0.3 0 0.5 0.1 0.8 0.1z" class="st0" data-v-6ddce0e5="" style="fill: rgb(135, 132, 131);"/>
    <path d="m378.9 141.1v-16.2h1.3c0.3 0 0.5 0.1 0.6 0.4l0.2 1.4c0.5-0.6 1.1-1.1 1.8-1.5s1.4-0.6 2.3-0.6c0.7 0 1.3 0.1 1.9 0.4s1 0.7 1.4 1.2 0.7 1.2 0.9 1.9 0.3 1.7 0.3 2.7c0 0.9-0.1 1.7-0.4 2.5-0.2 0.8-0.6 1.4-1 2s-1 1-1.6 1.3-1.4 0.5-2.2 0.5c-0.7 0-1.4-0.1-1.9-0.4-0.5-0.2-1-0.6-1.4-1v5.3h-2.2zm5.4-14.7c-0.7 0-1.3 0.2-1.8 0.5s-1 0.8-1.4 1.3v5.8c0.4 0.5 0.8 0.9 1.3 1.1s1 0.3 1.6 0.3c1.1 0 2-0.4 2.6-1.2s0.9-1.9 0.9-3.4c0-0.8-0.1-1.5-0.2-2-0.1-0.6-0.3-1-0.6-1.4s-0.6-0.6-1-0.8c-0.5-0.1-1-0.2-1.4-0.2z" class="st0" data-v-6ddce0e5="" style="fill: rgb(135, 132, 131);"/>
    <path d="m402.8 137h-0.9c-0.2 0-0.4 0-0.5-0.1s-0.2-0.2-0.3-0.4l-0.2-1.1c-0.3 0.3-0.6 0.5-0.9 0.8-0.3 0.2-0.6 0.4-1 0.6s-0.7 0.3-1.1 0.4-0.8 0.1-1.3 0.1-0.9-0.1-1.3-0.2-0.8-0.3-1.1-0.6-0.5-0.6-0.7-1-0.3-0.9-0.3-1.4 0.1-0.9 0.4-1.4c0.3-0.4 0.7-0.8 1.3-1.2 0.6-0.3 1.3-0.6 2.3-0.8s2.1-0.3 3.5-0.3v-0.9c0-0.9-0.2-1.7-0.6-2.1s-1-0.7-1.8-0.7c-0.5 0-1 0.1-1.3 0.2-0.4 0.1-0.7 0.3-0.9 0.4-0.3 0.2-0.5 0.3-0.7 0.4s-0.4 0.2-0.6 0.2c-0.1 0-0.3 0-0.4-0.1l-0.3-0.3-0.4-0.7c0.7-0.6 1.4-1.1 2.2-1.4s1.6-0.5 2.6-0.5c0.7 0 1.3 0.1 1.8 0.3s1 0.5 1.3 0.9c0.4 0.4 0.6 0.9 0.8 1.4 0.2 0.6 0.3 1.2 0.3 1.9v7.6zm-5.5-1.3c0.4 0 0.7 0 1-0.1s0.6-0.2 0.9-0.3 0.5-0.3 0.8-0.5c0.2-0.2 0.5-0.4 0.7-0.7v-2.5c-1 0-1.8 0.1-2.5 0.2s-1.2 0.3-1.7 0.5c-0.4 0.2-0.7 0.4-0.9 0.7s-0.3 0.6-0.3 0.9 0.1 0.6 0.2 0.8 0.2 0.4 0.4 0.6c0.2 0.1 0.4 0.3 0.6 0.3 0.3 0 0.5 0.1 0.8 0.1z" class="st0" data-v-6ddce0e5="" style="fill: rgb(135, 132, 131);"/>
    <path d="m414.9 126.9c-0.1 0.2-0.2 0.3-0.4 0.3-0.1 0-0.3 0-0.4-0.1-0.2-0.1-0.3-0.2-0.6-0.3-0.2-0.1-0.5-0.2-0.8-0.3s-0.7-0.1-1.1-0.1-0.7 0-1 0.1-0.5 0.2-0.7 0.4-0.4 0.3-0.5 0.6c-0.1 0.2-0.2 0.4-0.2 0.7s0.1 0.6 0.3 0.8 0.4 0.4 0.7 0.5c0.3 0.2 0.6 0.3 1 0.4s0.8 0.2 1.2 0.4c0.4 0.1 0.8 0.3 1.2 0.4 0.4 0.2 0.7 0.4 1 0.6s0.5 0.5 0.7 0.9c0.2 0.3 0.3 0.8 0.3 1.2 0 0.6-0.1 1.1-0.3 1.5-0.2 0.5-0.5 0.9-0.9 1.2s-0.9 0.6-1.4 0.8c-0.6 0.2-1.2 0.3-2 0.3s-1.6-0.1-2.3-0.4-1.3-0.6-1.7-1.1l0.5-0.8c0.1-0.1 0.1-0.2 0.2-0.2s0.2-0.1 0.3-0.1 0.3 0.1 0.5 0.2 0.4 0.2 0.6 0.4c0.2 0.1 0.5 0.3 0.8 0.4s0.7 0.2 1.2 0.2c0.4 0 0.8-0.1 1.1-0.2s0.6-0.3 0.8-0.4c0.2-0.2 0.4-0.4 0.5-0.6s0.1-0.5 0.1-0.8-0.1-0.6-0.3-0.8-0.4-0.4-0.7-0.6-0.6-0.3-1-0.4-0.8-0.2-1.2-0.4c-0.4-0.1-0.8-0.3-1.2-0.4-0.4-0.2-0.7-0.4-1-0.6s-0.5-0.6-0.7-0.9c-0.2-0.4-0.3-0.8-0.3-1.3s0.1-0.9 0.3-1.3 0.5-0.8 0.8-1.1 0.8-0.6 1.3-0.8 1.1-0.3 1.8-0.3c0.8 0 1.5 0.1 2.1 0.4 0.6 0.2 1.2 0.6 1.6 1l-0.2 0.6z" class="st0" data-v-6ddce0e5="" style="fill: rgb(135, 132, 131);"/>
    <path d="m427.1 126.9c-0.1 0.2-0.2 0.3-0.4 0.3-0.1 0-0.3 0-0.4-0.1-0.2-0.1-0.3-0.2-0.6-0.3-0.2-0.1-0.5-0.2-0.8-0.3s-0.7-0.1-1.1-0.1-0.7 0-1 0.1-0.5 0.2-0.7 0.4-0.4 0.3-0.5 0.6c-0.1 0.2-0.2 0.4-0.2 0.7s0.1 0.6 0.3 0.8 0.4 0.4 0.7 0.5c0.3 0.2 0.6 0.3 1 0.4s0.8 0.2 1.2 0.4c0.4 0.1 0.8 0.3 1.2 0.4 0.4 0.2 0.7 0.4 1 0.6s0.5 0.5 0.7 0.9c0.2 0.3 0.3 0.8 0.3 1.2 0 0.6-0.1 1.1-0.3 1.5-0.2 0.5-0.5 0.9-0.9 1.2s-0.9 0.6-1.4 0.8c-0.6 0.2-1.2 0.3-2 0.3s-1.6-0.1-2.3-0.4-1.3-0.6-1.7-1.1l0.5-0.8c0.1-0.1 0.1-0.2 0.2-0.2s0.2-0.1 0.3-0.1 0.3 0.1 0.5 0.2 0.4 0.2 0.6 0.4c0.2 0.1 0.5 0.3 0.8 0.4s0.7 0.2 1.2 0.2c0.4 0 0.8-0.1 1.1-0.2s0.6-0.3 0.8-0.4c0.2-0.2 0.4-0.4 0.5-0.6s0.1-0.5 0.1-0.8-0.1-0.6-0.3-0.8-0.4-0.4-0.7-0.6-0.6-0.3-1-0.4-0.8-0.2-1.2-0.4c-0.4-0.1-0.8-0.3-1.2-0.4-0.4-0.2-0.7-0.4-1-0.6s-0.5-0.6-0.7-0.9c-0.2-0.4-0.3-0.8-0.3-1.3s0.1-0.9 0.3-1.3 0.5-0.8 0.8-1.1 0.8-0.6 1.3-0.8 1.1-0.3 1.8-0.3c0.8 0 1.5 0.1 2.1 0.4 0.6 0.2 1.2 0.6 1.6 1l-0.2 0.6z" class="st0" data-v-6ddce0e5="" style="fill: rgb(135, 132, 131);"/>
    <path d="m435.3 121.1c0 0.2 0 0.4-0.1 0.6s-0.2 0.3-0.3 0.5c-0.1 0.1-0.3 0.2-0.5 0.3s-0.4 0.1-0.6 0.1-0.4 0-0.6-0.1-0.3-0.2-0.5-0.3c-0.1-0.1-0.2-0.3-0.3-0.5s-0.1-0.4-0.1-0.6 0-0.4 0.1-0.6 0.2-0.3 0.3-0.5c0.1-0.1 0.3-0.2 0.5-0.3s0.4-0.1 0.6-0.1 0.4 0 0.6 0.1 0.3 0.2 0.5 0.3c0.1 0.1 0.2 0.3 0.3 0.5s0.1 0.4 0.1 0.6zm-0.5 3.8v12.1h-2.1v-12.1h2.1z" class="st0" data-v-6ddce0e5="" style="fill: rgb(135, 132, 131);"/>
    <path d="m445.4 124.7c0.9 0 1.7 0.1 2.4 0.4s1.3 0.7 1.8 1.3c0.5 0.5 0.9 1.2 1.1 2 0.3 0.8 0.4 1.6 0.4 2.6s-0.1 1.8-0.4 2.6-0.6 1.4-1.1 2-1.1 1-1.8 1.2c-0.7 0.3-1.5 0.4-2.4 0.4s-1.7-0.1-2.4-0.4-1.3-0.7-1.8-1.2-0.9-1.2-1.2-2-0.4-1.6-0.4-2.6c0-0.9 0.1-1.8 0.4-2.6s0.7-1.4 1.2-2c0.5-0.5 1.1-1 1.8-1.3s1.5-0.4 2.4-0.4zm0 10.8c1.2 0 2.1-0.4 2.7-1.2s0.9-1.9 0.9-3.3-0.3-2.6-0.9-3.4-1.5-1.2-2.7-1.2c-0.6 0-1.1 0.1-1.6 0.3-0.4 0.2-0.8 0.5-1.1 0.9s-0.5 0.9-0.7 1.4c-0.1 0.6-0.2 1.2-0.2 1.9s0.1 1.4 0.2 1.9c0.1 0.6 0.4 1 0.7 1.4s0.7 0.7 1.1 0.9c0.5 0.3 1 0.4 1.6 0.4z" class="st0" data-v-6ddce0e5="" style="fill: rgb(135, 132, 131);"/>
    <path d="m455.7 137v-12.1h1.3c0.3 0 0.5 0.1 0.6 0.4l0.2 1.3c0.5-0.6 1.1-1 1.8-1.4 0.6-0.4 1.4-0.5 2.2-0.5 0.7 0 1.2 0.1 1.7 0.3s0.9 0.5 1.3 0.9c0.3 0.4 0.6 0.9 0.8 1.5s0.3 1.2 0.3 1.9v7.7h-2.1v-7.7c0-0.9-0.2-1.6-0.6-2.1s-1.1-0.8-1.9-0.8c-0.6 0-1.2 0.2-1.8 0.5-0.5 0.3-1 0.7-1.5 1.2v8.9h-2.3z" class="st0" data-v-6ddce0e5="" style="fill: rgb(135, 132, 131);"/>
    <path d="m471.9 134.2v-1.5c0-0.1 0-0.2 0.1-0.3s0.2-0.2 0.3-0.3l5.4-2.7c0.2-0.1 0.3-0.2 0.5-0.2 0.2-0.1 0.4-0.1 0.6-0.2-0.2 0-0.4-0.1-0.6-0.2s-0.3-0.1-0.5-0.2l-5.4-2.7c-0.2-0.1-0.3-0.2-0.3-0.3s-0.1-0.2-0.1-0.4v-1.5l9.2 4.8v0.9l-9.2 4.8z" class="st0" data-v-6ddce0e5="" style="fill: rgb(135, 132, 131);"/>
    <path d="m202.4 82.1c-2.6 3.5-4.8 6.2-4.8 7 0 1.6 3.3 1.6 5.2 1.6 10.9 0 20.6-1.1 28.6-9.1 0.7-0.8 1.2-1.3 1.4-1.3s0.3 0.2 0.3 0.4c0 0.7-0.5 1.8-0.7 2.5l-3.6 9.8h-47.6l32.9-42.2c1.3-1.6 2.3-3 2.3-3.8 0-1.7-3-1.7-6.2-1.7-11.5 0-17.9 0.8-25.6 9.7-0.2 0.2-0.5 0.6-0.8 0.6-0.2 0-0.2-0.3-0.2-0.4 0.1-0.6 0.2-1.1 0.4-1.5l4-10.8h42.9l-28.5 39.2z" class="st0" data-v-6ddce0e5="" style="fill: rgb(135, 132, 131);"/>
    <path d="m280.1 59.5c0-9.5-4.5-16.1-14.6-16.1-8.8 0-13.5 7.8-14.6 16.1h29.2zm-29.5 1.8c-0.2 2.2-0.3 4.2-0.3 6.3 0 17.9 9.3 24.6 18.6 24.6 11.1 0 19.3-7.6 22.6-18.9h2c-3.1 13.3-12.7 21.3-25.8 21.3-16.4 0-28.6-11.1-28.6-26.5s12.2-26.5 28.6-26.5c10.5 0 23.2 6.4 24.6 19.8h-41.7z" class="st0" data-v-6ddce0e5="" style="fill: rgb(135, 132, 131);"/>
    <path d="m312.7 56.5h0.2c2.2-8.2 6.9-15 19.7-15 10.6 0 20.5 5.5 20.5 20.8v18.7c-0.2 9.2 1.1 10.5 3.9 11.5 0.7 0.2 1.3 0.5 1.3 0.7 0 0.3-0.5 0.3-1.4 0.3s-3.4-0.3-8.7-0.3c-5.2 0-8.7 0.3-9.9 0.3-0.6 0-1.1 0-1.1-0.3 0-0.2 0.2-0.5 0.9-0.6 3.5-0.4 5.2-3 5.2-11.6v-18.7c0-8.9-4-18.3-14.2-18.3-11.5 0-15.2 11.8-15.2 25.3v11.7c0 6.1 0.3 10.6 4.6 11.4 0.7 0.1 1.1 0.3 1.1 0.6 0 0.4-0.3 0.5-0.9 0.5-0.7 0-4.6-0.3-9.8-0.3s-9.6 0.3-10.3 0.3c-0.6 0-0.9-0.1-0.9-0.5 0-0.3 0.4-0.5 1.1-0.6 4.8-0.8 5.2-5.3 5.2-11.4v-23.9c0-5.8-0.7-9.1-3.4-10.2-1.1-0.5-1.7-0.8-1.7-1 0-0.3 0.7-0.3 1.8-0.5 4.6-0.9 8.6-1.5 12.2-2.8v13.9z" class="st0" data-v-6ddce0e5="" style="fill: rgb(135, 132, 131);"/>
    <path d="m366.1 30.6c0-3.1 2.6-5.8 5.7-5.8 3.3 0 5.8 2.7 5.8 5.8s-2.5 5.7-5.8 5.7c-3.1 0-5.7-2.6-5.7-5.7m1.6 22.3c0-4.8-1.8-5.4-3.4-6.3-0.6-0.3-1.6-0.3-1.6-0.6 0-0.2 1.1-0.3 1.7-0.4 4.5-0.9 8.6-1.8 13.2-3.1v38.5c0 6.1 0.6 10.4 5 11.3 0.6 0.1 1 0.3 1 0.9 0 0.3-0.5 0.3-1.4 0.3-1 0-4.4-0.3-9.6-0.3s-8.7 0.3-9.6 0.3-1.4 0-1.4-0.3c0-0.6 0.4-0.8 1-0.9 4.4-0.9 5.1-5.2 5.1-11.3v-28.1z" class="st0" data-v-6ddce0e5="" style="fill: rgb(135, 132, 131);"/>
    <path d="m418.5 77.9c-2-3.4-6.3-11.9-11.5-11.9-3.4 0-3.4 3.9-3.4 8v7c0 6.1 0.5 9.7 5.2 11.4 0.5 0.1 0.9 0.3 0.9 0.6s-0.5 0.5-1.1 0.5c-0.5 0-4.7-0.3-10-0.3-5.2 0-9.1 0.3-9.6 0.3s-1-0.2-1-0.5 0.3-0.4 0.7-0.6c4.6-1.4 5-7.1 5-15.2v-38.4c0-5.7-0.4-10.1-3.6-10.6-1.1-0.2-1.6-0.5-1.6-0.9 0-0.3 0.9-0.5 1.8-0.8 4.6-1.2 8.7-2.1 13.3-3.4v41.7l16.2-13.5c2.2-1.8 3.6-3.4 3.6-5 0-1.3-1.2-2.1-1.6-2.6-0.4-0.3-1-0.3-1-0.8 0-0.4 0.6-0.4 1.4-0.4 0.9 0 4.2 0.4 9.3 0.4 4.7 0 5.9-0.4 9-0.4 0.9 0 1.3 0 1.3 0.6 0 0.5-1.6 0.6-3.2 1-5.5 1.3-11.1 4.7-15.6 8.2l-14.3 10.8v0.2c13.1 0.3 16 5.3 22.7 15.9 3.3 5.2 7.3 10.6 12.5 13 0.5 0.2 1 0.4 1 0.7s-0.5 0.5-1.1 0.5c-0.5 0-4.8-0.3-9.6-0.3-2.2 0-4.4 0.3-6.4 0.3l-9.3-15.5z" class="st0" data-v-6ddce0e5="" style="fill: rgb(135, 132, 131);"/>
    <path d="m484.5 64.2h-5.7c-10.4 0-21.1 3.1-21.1 15.8 0 7 5.1 12.2 12 12.2 11.4 0 14.9-12 14.9-21.2v-6.8zm9.9 20.6c0 3.2 0.5 6.1 3.5 7.4 0.6 0.3 1 0.3 1 0.6s-0.6 0.4-1.3 0.4h-10.4c-1.4-3.1-2.1-6.5-2.3-9.8h-0.2c-3.8 7.8-9.4 11.3-17.8 11.3-10 0-20.4-4.6-20.4-16.1 0-14.7 22.4-16.1 32.5-16.1h5.5v-3.2c0-9.3-4.3-15.8-14.1-15.8-8.9 0-14.1 2.6-17.6 11.1-0.4 0.9-0.6 1.6-0.8 1.6s-0.3-0.5-0.5-1.1l-2.5-8.7c7.9-4.1 14.2-4.8 22.8-4.8 11 0 22.6 4 22.6 16.1v27.1z" class="st0" data-v-6ddce0e5="" style="fill: rgb(135, 132, 131);"/>
    <ellipse cx="81" cy="79" rx="69.4" ry="65.8" class="st1" data-v-6ddce0e5="" style="fill: rgb(255, 255, 255);"/>
    <path d="m79 0c-43.6 0-79 35.4-79 79s35.4 79 79 79 79-35.4 79-79-35.4-79-79-79zm47.4 104c-0.1 0.3-0.1 0.7-0.3 0.8-0.7 0.4-1.4 0.7-2.2 1-1.7 0.8-3.3 1.4-5.3 0.6-0.9-0.4-1.9-0.2-3.1-0.3 0.3 2.1 0.7 4 0.9 6 0.5 3.8 0.9 7.6 1.2 11.4 0.1 1.2-0.1 2.5-0.5 3.6-1.2 3.8-4.5 5.4-8.4 4-1.4-0.5-2.7-1.3-3.9-2.2-2.5-1.8-5-3.8-7.4-5.7-0.3-0.2-0.5-0.6-0.8-0.8l-0.3-0.3c-0.6-0.4-1.3-0.7-1.9-1.1-8.6-5.7-17-11.6-26.1-16.5-5.8-3.1-11.7-5.7-17.9-7.7-0.8-0.3-1.7-0.5-2.6-0.5-1.2-0.1-1.9 0.5-2 1.7-0.3 4-0.1 7.9 0.6 11.9 0.9 5.1 3.2 9.7 5.8 14.1 0.3 0.5 0.8 0.8 1 1.2 0.3 0.6 0.6 1.5 0.4 2s-1.1 0.9-1.6 0.9c-6.3-0.2-10.8-3-11.9-10-1.1-6.9-1.9-13.8-1.2-20.8 0.1-1.3 0.3-2.5 0.5-3.8 0.6-3.2 2.5-5.2 5.6-6.3 6.9-2.4 13.8-4.9 20.6-7.5 12.7-4.8 25.3-9.7 38-14.5 0.3-0.1 0.7-0.3 1-0.4v-0.3c-2.3-0.3-4.7-0.7-7-0.8-11.6-0.6-23.4-0.4-35.2 0.3-4.5 0.3-8.9 0.7-13.4 1.2-2.1 0.2-4.2 0.8-6.3 1.2-1.1 0.2-2.1 0.4-2.8-0.6s-0.3-2 0.2-2.9c1.7-2.7 4.1-4.1 7.3-4.1h17.8c4.7 0 9.3-0.1 14 0 1.6 0 3.3 0.2 4.9 0.3l0.1-0.3c-3.8-2.4-7.7-4.8-11.5-7.3 0.1-0.2 0.2-0.3 0.3-0.5 1 0.5 2 0.9 3.1 1.4-3.1-3.2-24.3-13.3-30.7-14.6 0.6 0.4 1 0.6 1.4 0.9v0.2c-0.5 0-0.9 0-1.3-0.1-3-0.8-6-1.6-9-2.5-0.6-0.2-1.4-0.9-1.4-1.4 0-0.6 0.7-1.5 1.2-1.7 5-1.7 10-2.7 15.2-0.6 7.1 2.8 13.6 6.8 20 10.9 2.1 1.4 4.2 2.8 6.4 4.2 0.3 0.2 1 0.3 1.3 0.2 8.9-4.7 17.9-9 26.3-14.5 1.9-1.2 3.8-2.5 5.6-3.9 0.6-0.5 1.2-1.2 1.6-1.9 0.6-0.9 1.5-1.4 2.5-1.1 2.7 0.7 4.6 2.5 5.8 4.9 0.6 1.1-0.3 3-1.6 3.8-4.1 2.4-8.2 4.8-12.3 7.1-6.9 3.9-13.8 7.8-20.8 11.8 2 1.4 4.1 2.9 6.2 4.4 0.3 0.2 0.7 0.1 1 0.2 6.1 0.3 12.2 0.8 18 2.5 0.8 0.2 1.5 0.6 2.2 0.9 2.2 1.2 2.4 3.3 0.3 4.8-1.3 0.9-2.7 1.8-4.2 2.4-4.6 2-9.3 4-14 5.9-11.7 4.8-23.5 9.6-35.3 14.3-0.6 0.2-1.1 0.5-1.6 0.7 16.4 2.2 32.8 4.4 49.3 6.6 0-0.9 0.1-1.9 0-2.9-0.1-1.8-0.4-3.6-0.5-5.4-0.1-0.9 0.2-1.6 1.1-1.8 0.9-0.3 1.9-0.3 2.3 0.6 0.8 1.7 1.3 3.5 1.9 5.3-0.1 0-0.2 0.1-0.3 0.1-0.5-1.4-0.9-2.8-1.4-4.3-0.1 0-0.1 0-0.2 0.1 0.6 2.5 1.3 5 1.9 7.5l0.3 1.2c0.3 1.1 1 1.6 2.1 1.5 0.9-0.1 1.8-0.1 2.7 0.1 1.9 0.4 3.7 0.9 5.6 1.6 1.1 0.4 2 1 3 1.7s0.4 1.2-0.3 1.9z" class="st2" data-v-6ddce0e5="" style="fill: rgb(178, 30, 62);"/>
    <path d="m108.6 105.1c-0.1-0.8 0.3-1.9-1-2.2-1.9-0.5-3.7-1.2-5.6-1.6-3-0.7-6-1.2-8.9-1.9-0.8-0.2-1.6-0.5-2.4-0.7-0.7-0.2-1.4-0.5-2.1-0.6-1.1-0.2-2.3-0.1-3.4-0.2-5.2-0.7-10.4-1.5-15.6-2.3-1.2-0.2-2.3-0.3-3.5-0.4 0 0.1 0 0.1-0.1 0.2 2.5 1.5 5 2.9 7.7 4.5-0.6 0.3-0.8 0.4-1.1 0.6 1.5 1 2.9 1.8 4.5 2.9 0.1-1.3 0.8-0.9 1.3-0.5 5.8 3.8 11.7 7.5 17.5 11.4 1.5 1 2.9 2.3 4.3 3.4 1.9 1.6 3.9 3.3 5.8 4.9 0.6 0.5 1.1 0.6 1.2-0.3 0.5-2.8 1.1-5.6 1.4-8.5 0.2-1.7-0.2-3.5-0.2-5.2 0.1-1.1 0.3-2.3 0.2-3.5z" class="st2" data-v-6ddce0e5="" style="fill: rgb(178, 30, 62);"/>
  </g>
  <text style="font-size: 36; font-family: Roboto; white-space: pre;" transform="matrix(1, 0, 0, 1, 214.799408, 38.358351)"/>
  <text style="font-size: 36; font-family: Roboto; white-space: pre;" transform="matrix(1, 0, 0, 1, 105.613524, 65.456481)"/>
  <text style="font-size: 36; font-family: Roboto; white-space: pre;" transform="matrix(1, 0, 0, 1, 105.678289, 65.422626)"/>
</svg>