<?xml version="1.0" encoding="utf-8"?>
<svg width="237px" height="45px" viewBox="0 0 237 45" version="1.1" xmlns="http://www.w3.org/2000/svg">
  <title>Logo Atecna Copy 6</title>
  <desc>Created with Sketch.</desc>
  <g id="Logo-Atecna-Copy-6" stroke="none" stroke-width="1" fill="none" fill-rule="evenodd">
    <g id="Group" fill="#3A3431">
      <polygon id="Fill-373" points="73 10.0671186 73 0 37 0 37 10.0671186 49.41226 10.0671186 49.7103402 10.0671186 49.7103402 10.3651118 49.7103402 45 60.3523072 45 60.3523072 10.3651118 60.3523072 10.0671186 60.6513978 10.0671186"/>
      <polygon id="Fill-374" points="86.425421 26.5553236 86.425421 26.2573237 86.7157542 26.2573237 100.564154 26.2573237 100.564154 18.0466698 86.7157542 18.0466698 86.425421 18.0466698 86.425421 17.7486699 86.425421 10.3602936 86.425421 10.0622938 86.7157542 10.0622938 102.443938 10.0622938 102.443938 0 76 0 76 45 103 45 103 35.4448111 86.7157542 35.4448111 86.425421 35.4448111 86.425421 35.1468112"/>
      <g id="Group-379">
        <path d="M105.7229,22.6594 C105.7859,37.8124 117.3889,44.7154 128.1439,44.7154 L128.2919,44.7154 C137.1939,44.7154 147.2869,40.2444 149.0979,27.7324 L138.4619,27.7324 C137.2179,32.2444 133.4339,34.9304 128.2939,34.9304 C121.6959,34.8684 116.9089,29.7074 116.9089,22.6584 C116.9089,15.0494 121.4829,9.9364 128.2939,9.9364 C132.4229,9.9364 135.4399,11.4564 137.2639,14.4534 L146.1809,9.1034 C142.6249,3.4914 135.9639,0.1514 128.2939,0.1514 C122.4229,0.1514 116.9309,2.1544 112.8279,5.7934 C108.2089,9.8904 105.7519,15.7224 105.7229,22.6594" id="Fill-375"/>
        <polygon id="Fill-377" points="13.3286 39.0863 13.5196 39.0863 31.1466 39.0863 31.3386 39.0863 31.4186 39.2603 33.9576 44.7073 44.6436 44.7073 44.6436 43.4123 38.3676 29.8503 27.3796 29.8503 17.2876 29.8503 16.8346 29.8503 17.0116 29.4333 21.9926 17.6813 22.2666 17.0373 22.5456 17.6793 25.5756 24.6233 33.6986 19.7493 24.6306 0.1593 18.1886 4.0243 0.0236 43.4123 0.0236 44.7073 10.7096 44.7073 13.2476 39.2603"/>
      </g>
      <polygon id="Fill-396" points="178.33448 0 178.33448 22.7605944 157.694406 2.04536272 152 5.46036093 152 45 162.639255 45 162.639255 22.3626324 184.831982 44.9939397 189 44.9939397 189 0"/>
      <path d="M198.332616,29.9929288 L198.328582,29.9929288 L192,43.6928413 L192,45 L202.776239,45 L205.335911,39.4986194 L205.417602,39.32285 L205.611242,39.32285 L223.388758,39.32285 L223.581389,39.32285 L223.663081,39.4986194 L226.222753,45 L237,45 L237,43.6928413 L218.680898,3.90430332 L212.181873,0 L198.332616,29.9929288 Z M214.285685,17.6971513 L214.567068,17.049633 L214.843408,17.7001818 L219.867949,29.5706782 L220.04646,29.9929288 L219.588583,29.9929288 L209.411417,29.9929288 L208.945472,29.9929288 L214.285685,17.6971513 Z" id="Fill-397"/>
    </g>
  </g>
</svg>