<?xml version="1.0" encoding="utf-8"?>
<svg width="503px" height="163px" viewBox="0 0 503 163" version="1.1" xmlns="http://www.w3.org/2000/svg">
  <title>Group 23</title>
  <desc>Created with Sketch.</desc>
  <defs>
    <polygon id="path-1" points="0.8961 0.2551 60.685 0.2551 60.685 78.7631 0.8961 78.7631"/>
  </defs>
  <g id="Symbols" stroke="none" stroke-width="1" fill="none" fill-rule="evenodd">
    <g id="Logo/Gsquad/4colours">
      <g id="Group-23">
        <path d="M187.477,87.315 C190.263,84.317 191.657,80.42 191.657,75.621 C191.657,70.824 190.263,66.927 187.477,63.928 C184.689,60.931 181.075,59.43 176.629,59.43 C172.185,59.43 168.57,60.948 165.783,63.982 C162.996,67.015 161.567,70.896 161.498,75.621 C161.567,80.42 162.996,84.317 165.783,87.315 C168.57,90.314 172.185,91.813 176.629,91.813 C181.075,91.813 184.689,90.314 187.477,87.315 L187.477,87.315 Z M205.414,48.849 L205.414,100.066 C205.414,105.428 204.197,110.101 201.762,114.087 C199.329,118.072 195.871,121.142 191.392,123.294 C186.911,125.445 181.709,126.522 175.784,126.522 C167.175,126.522 159.205,124.016 151.868,119.008 L157.371,109.061 C162.731,113.011 168.623,114.987 175.042,114.987 C180.123,114.987 184.16,113.681 187.159,111.072 C190.157,108.461 191.657,104.899 191.657,100.384 L191.657,93.717 C189.751,96.61 187.282,98.815 184.249,100.331 C181.215,101.849 177.688,102.606 173.666,102.606 C168.728,102.606 164.355,101.46 160.545,99.167 C156.736,96.875 153.773,93.664 151.657,89.537 C149.539,85.41 148.482,80.667 148.482,75.304 C148.482,70.013 149.539,65.34 151.657,61.283 C153.773,57.227 156.736,54.071 160.545,51.812 C164.355,49.555 168.728,48.425 173.666,48.425 C177.617,48.425 181.127,49.203 184.196,50.753 C187.265,52.306 189.751,54.494 191.657,57.315 L191.657,48.849 L205.414,48.849 Z" id="Fill-1" fill="#061C3D"/>
        <path d="M242.2671,60.3834 C239.3381,59.4674 236.6401,59.0084 234.1711,59.0084 C231.8431,59.0084 229.9921,59.4144 228.6161,60.2244 C227.2401,61.0364 226.5521,62.2874 226.5521,63.9814 C226.5521,65.7454 227.4151,67.1034 229.1451,68.0554 C230.8721,69.0074 233.6061,70.0134 237.3461,71.0714 C241.2961,72.2724 244.5411,73.4524 247.0811,74.6164 C249.6211,75.7804 251.8261,77.5094 253.6951,79.8014 C255.5641,82.0944 256.4991,85.1104 256.4991,88.8494 C256.4991,94.3514 254.3831,98.5844 250.1501,101.5484 C245.9171,104.5104 240.5901,105.9924 234.1711,105.9924 C229.7961,105.9924 225.5291,105.3034 221.3671,103.9284 C217.2041,102.5524 213.6771,100.5944 210.7851,98.0554 L215.5461,88.4254 C218.0861,90.6124 221.1201,92.3244 224.6471,93.5584 C228.1741,94.7934 231.5261,95.4094 234.7011,95.4094 C237.2401,95.4094 239.2671,94.9704 240.7851,94.0874 C242.3011,93.2064 243.0601,91.8834 243.0601,90.1194 C243.0601,88.1454 242.1771,86.6634 240.4141,85.6744 C238.6511,84.6874 235.7931,83.5944 231.8431,82.3934 C228.0341,81.2664 224.9281,80.1554 222.5311,79.0614 C220.1311,77.9674 218.0501,76.3094 216.2881,74.0874 C214.5241,71.8644 213.6421,68.9544 213.6421,65.3564 C213.6421,59.7844 215.6691,55.5334 219.7271,52.6064 C223.7831,49.6794 228.8801,48.2144 235.0181,48.2144 C238.7561,48.2144 242.4421,48.7424 246.0771,49.8014 C249.7091,50.8594 252.9361,52.3404 255.7591,54.2464 L250.7861,64.1924 C248.0341,62.5704 245.1941,61.3014 242.2671,60.3834" id="Fill-3" fill="#061C3D"/>
        <path d="M302.2524,89.7491 C305.2504,86.5401 306.7494,82.3941 306.7494,77.3141 C306.7494,72.2351 305.2504,68.0911 302.2524,64.8811 C299.2534,61.6721 295.3904,60.0661 290.6644,60.0661 C285.9384,60.0661 282.0934,61.6721 279.1304,64.8811 C276.1674,68.0911 274.6494,72.2351 274.5804,77.3141 C274.6494,82.3941 276.1674,86.5401 279.1304,89.7491 C282.0934,92.9591 285.9384,94.5641 290.6644,94.5641 C295.3904,94.5641 299.2534,92.9591 302.2524,89.7491 L302.2524,89.7491 Z M320.5064,48.8491 L320.5064,126.7831 L306.7494,126.7831 L306.7494,96.3621 C304.7024,99.5371 302.0754,101.9551 298.8664,103.6111 C295.6554,105.2691 291.9354,106.0981 287.7014,106.0981 C282.3404,106.0981 277.6314,104.8801 273.5744,102.4481 C269.5174,100.0141 266.3604,96.5921 264.1044,92.1831 C261.8454,87.7741 260.7184,82.7121 260.7184,76.9971 C260.7184,71.3541 261.8284,66.3621 264.0514,62.0231 C266.2734,57.6851 269.4114,54.3161 273.4694,51.9171 C277.5244,49.5201 282.1624,48.3201 287.3844,48.3201 C291.6874,48.3201 295.4614,49.1661 298.7074,50.8591 C301.9514,52.5531 304.6334,54.9871 306.7494,58.1621 L306.7494,48.8491 L320.5064,48.8491 Z" id="Fill-5" fill="#061C3D"/>
        <path d="M382.3335,48.8487 L382.3335,105.4627 L368.4715,105.4627 L368.4715,94.9877 C364.6615,102.3257 358.1015,105.9927 348.7885,105.9927 C342.4385,105.9927 337.4295,104.0527 333.7625,100.1717 C330.0935,96.2927 328.2595,91.0017 328.2595,84.2997 L328.2595,48.8487 L342.1215,48.8487 L342.1215,80.2777 C342.1215,84.2287 343.1965,87.3327 345.3495,89.5897 C347.5005,91.8487 350.4815,92.9767 354.2915,92.9767 C358.6645,92.9067 362.1215,91.3547 364.6615,88.3197 C367.2015,85.2877 368.4715,81.4417 368.4715,76.7857 L368.4715,48.8487 L382.3335,48.8487 Z" id="Fill-7" fill="#061C3D"/>
        <path d="M420.1792,92.7115 C422.9992,90.8435 424.5872,88.5315 424.9412,85.7805 L424.9412,80.7015 L410.6552,80.7015 C406.9862,80.7015 404.2872,81.2485 402.5602,82.3405 C400.8302,83.4355 399.9672,85.2165 399.9672,87.6855 C399.9672,90.0845 400.8672,91.9895 402.6652,93.3995 C404.4642,94.8125 406.9152,95.5155 410.0202,95.5155 C413.9702,95.5155 417.3572,94.5815 420.1792,92.7115 L420.1792,92.7115 Z M425.0462,105.4625 L425.0462,98.5845 C423.0712,101.0555 420.5322,102.9225 417.4272,104.1925 C414.3232,105.4625 410.7612,106.0975 406.7402,106.0975 C402.7882,106.0975 399.3142,105.3405 396.3172,103.8225 C393.3172,102.3065 391.0072,100.2085 389.3852,97.5265 C387.7612,94.8465 386.9502,91.8485 386.9502,88.5315 C386.9502,83.2405 388.8202,79.0965 392.5602,76.0975 C396.2982,73.1005 401.5892,71.5655 408.4322,71.4945 L424.9412,71.4945 L424.9412,70.0135 C424.9412,66.6975 423.8462,64.1235 421.6602,62.2875 C419.4732,60.4545 416.2982,59.5365 412.1372,59.5365 C406.7742,59.5365 401.1662,61.3015 395.3112,64.8285 L390.3372,55.3045 C394.7822,52.8355 398.8202,51.0545 402.4542,49.9595 C406.0862,48.8675 410.3372,48.3205 415.2052,48.3205 C422.5412,48.3205 428.2382,50.0845 432.2952,53.6105 C436.3522,57.1395 438.4142,62.0765 438.4862,68.4255 L438.5922,105.4625 L425.0462,105.4625 Z" id="Fill-9" fill="#061C3D"/>
        <g id="Group-13" transform="translate(442.000000, 27.335000)">
          <mask id="mask-2" fill="white">
            <polygon points="0.896 0.255 60.685 0.255 60.685 78.763 0.896 78.763"/>
          </mask>
          <g id="Clip-12"/>
          <path d="M42.4311,62.4141 C45.4281,59.2051 46.9281,55.0591 46.9281,49.9791 C46.9281,44.9001 45.4281,40.7561 42.4311,37.5461 C39.4311,34.3371 35.5691,32.7311 30.8431,32.7311 C26.1171,32.7311 22.2721,34.3371 19.3091,37.5461 C16.3461,40.7561 14.8271,44.9001 14.7581,49.9791 C14.8271,55.0591 16.3461,59.2051 19.3091,62.4141 C22.2721,65.6241 26.1171,67.2291 30.8431,67.2291 C35.5691,67.2291 39.4311,65.6241 42.4311,62.4141 L42.4311,62.4141 Z M60.6851,0.2551 L60.6851,78.1281 L46.9281,78.1281 L46.9281,69.0271 C44.8811,72.2021 42.2531,74.6201 39.0441,76.2761 C35.8331,77.9341 32.1131,78.7631 27.8801,78.7631 C22.5181,78.7631 17.8091,77.5451 13.7531,75.1131 C9.6961,72.6791 6.5391,69.2571 4.2831,64.8481 C2.0241,60.4391 0.8961,55.3771 0.8961,49.6621 C0.8961,44.0191 2.0071,39.0271 4.2291,34.6881 C6.4521,30.3501 9.5901,26.9811 13.6471,24.5821 C17.7031,22.1851 22.3411,20.9851 27.5631,20.9851 C31.8651,20.9851 35.6401,21.8311 38.8861,23.5241 C42.1291,25.2181 44.8121,27.6521 46.9281,30.8271 L46.9281,0.2551 L60.6851,0.2551 Z" id="Fill-11" fill="#061C3D" mask="url(#mask-2)"/>
        </g>
        <path d="M77.9526,98.461 L77.9526,162.228 C95.5606,162.228 109.8356,147.953 109.8356,130.344 C109.8356,112.735 95.5606,98.461 77.9526,98.461" id="Fill-14" fill="#FFB600"/>
        <polygon id="Fill-16" fill="#FF2C2C" points="42.511 126.801 70.823 126.801 70.823 98.461 42.511 98.461"/>
        <path d="M42.5053,134.0045 C44.3623,148.8355 55.9443,160.5705 70.8063,162.3355 L70.8063,134.0045 L42.5053,134.0045 Z" id="Fill-18" fill="#061C3D"/>
        <path d="M35.4262,0.0001 C15.3232,3.3601 0.0002,20.8271 0.0002,41.8831 C0.0002,62.9391 15.3232,80.4061 35.4262,83.7671 L35.4262,0.0001 Z" id="Fill-19" fill="#061C3D"/>
        <path d="M53.1421,0.0123 L53.1421,83.7543 C73.2101,80.3663 88.4991,62.9153 88.4991,41.8833 C88.4991,20.8513 73.2101,3.4003 53.1421,0.0123" id="Fill-20" fill="#061C3D"/>
        <path d="M111.5415,13.439 C111.5415,20.301 105.9795,25.863 99.1165,25.863 C92.2555,25.863 86.6925,20.301 86.6925,13.439 C86.6925,6.577 92.2555,1.014 99.1165,1.014 C105.9795,1.014 111.5415,6.577 111.5415,13.439" id="Fill-21" fill="#FF2C2C"/>
        <path d="M35.4262,84.2906 C23.6962,84.2906 14.1862,93.8006 14.1862,105.5316 C14.1862,117.2626 23.6962,126.7716 35.4262,126.7716 L35.4262,84.2906 Z" id="Fill-22" fill="#2788F2"/>
      </g>
    </g>
  </g>
</svg>