<?xml version="1.0" standalone="no"?><!DOCTYPE svg PUBLIC "-//W3C//DTD SVG 1.1//EN" "http://www.w3.org/Graphics/SVG/1.1/DTD/svg11.dtd"><svg t="1566526586136" class="icon" viewBox="0 0 1422 1024" version="1.1" xmlns="http://www.w3.org/2000/svg" p-id="1619" xmlns:xlink="http://www.w3.org/1999/xlink" width="277.734375" height="200"><defs><style type="text/css"></style></defs><path d="M1371.420444 520.419556c-0.455111-8.192-13.027556-48.696889-30.549333-90.851556-18.033778-43.406222-48.469333-106.325333-90.567111-158.833778a601.088 601.088 0 0 0-202.126222-163.669333c-96.995556-48.696889-210.488889-73.272889-337.180445-73.272889-126.520889 0-240.071111 24.689778-337.009777 73.386667A605.013333 605.013333 0 0 0 171.861333 270.791111c-42.097778 52.679111-72.419556 115.541333-90.453333 159.004445-17.521778 42.097778-29.923556 82.659556-30.378667 90.851555v0.568889c0.455111 8.192 13.027556 48.696889 30.549334 91.022222 18.204444 43.406222 48.412444 106.268444 90.453333 158.663111a601.088 601.088 0 0 0 202.126222 163.669334c97.564444 48.867556 210.887111 73.557333 337.009778 73.557333 126.236444 0 239.559111-24.689778 337.009778-73.557333a604.615111 604.615111 0 0 0 202.126222-163.555556c42.097778-52.508444 72.533333-115.370667 90.567111-158.833778 17.521778-42.097778 30.151111-82.659556 30.549333-90.851555v-0.853334z m-108.544 0.284444c-8.305778 25.486222-40.675556 117.304889-94.208 184.035556l-0.739555 0.739555a499.313778 499.313778 0 0 1-167.139556 135.395556c-82.659556 41.415111-180.337778 62.464-290.247111 62.464-109.966222 0-207.530667-21.048889-290.133333-62.464a496.981333 496.981333 0 0 1-167.253333-135.566223c-53.816889-67.015111-86.300444-159.118222-94.606223-184.718222 8.305778-25.486222 40.789333-117.475556 94.606223-184.775111a499.939556 499.939556 0 0 1 167.367111-135.395555c82.773333-41.415111 180.451556-62.350222 290.474666-62.350223 110.421333 0 207.985778 20.935111 290.076445 62.293334a496.981333 496.981333 0 0 1 167.196444 135.623111c53.816889 67.299556 86.300444 159.288889 94.606222 184.718222z m-551.879111-254.634667c-139.832889 0-253.496889 113.777778-253.496889 253.496889 0 139.662222 113.777778 253.44 253.496889 253.44 139.662222 0 253.496889-113.777778 253.496889-253.44a253.781333 253.781333 0 0 0-253.496889-253.496889z m149.219556 253.496889c0 39.765333-15.530667 77.198222-43.804445 105.415111a148.138667 148.138667 0 0 1-105.415111 43.804445c-39.822222 0-77.255111-15.530667-105.472-43.804445a148.138667 148.138667 0 0 1-43.747555-105.415111c0-39.822222 15.530667-77.255111 43.804444-105.472a148.138667 148.138667 0 0 1 105.415111-43.747555c39.822222 0 77.255111 15.530667 105.472 43.747555s43.747556 65.649778 43.747556 105.472z" fill="#666666" p-id="1620"></path></svg>