<?xml version="1.0" standalone="no"?><!DOCTYPE svg PUBLIC "-//W3C//DTD SVG 1.1//EN" "http://www.w3.org/Graphics/SVG/1.1/DTD/svg11.dtd"><svg t="1566521534735" class="icon" viewBox="0 0 1024 1024" version="1.1" xmlns="http://www.w3.org/2000/svg" p-id="1383" xmlns:xlink="http://www.w3.org/1999/xlink" width="200" height="200"><defs><style type="text/css"></style></defs><path d="M499.413333 186.154667a224 224 0 0 0-159.146666 65.877333A223.573333 223.573333 0 0 0 274.346667 411.221333c0 60.16 23.424 116.608 65.877333 159.146667a223.573333 223.573333 0 0 0 159.189333 65.92c60.16 0 116.608-23.424 159.146667-65.877333a223.573333 223.573333 0 0 0 65.92-159.146667c0-60.245333-23.424-116.650667-65.877333-159.232a224 224 0 0 0-159.189334-65.877333z m0 370.56a145.578667 145.578667 0 0 1-145.493333-145.493334 145.578667 145.578667 0 0 1 145.493333-145.493333 145.578667 145.578667 0 0 1 145.493334 145.493333 145.578667 145.578667 0 0 1-145.493334 145.493334z m399.744-323.84a390.784 390.784 0 0 0-95.573333-121.386667A455.253333 455.253333 0 0 0 664.96 29.866667a471.466667 471.466667 0 0 0-165.376-29.866667h-0.256c-56.618667 0-112.213333 10.026667-165.418667 29.866667a455.253333 455.253333 0 0 0-138.666666 81.621333A390.4 390.4 0 0 0 99.669333 232.874667 332.714667 332.714667 0 0 0 64 382.122667c0 71.68 17.621333 145.365333 52.394667 219.050666 28.757333 61.013333 69.461333 122.496 121.045333 182.912 92.330667 108.16 196.224 185.514667 236.544 213.717334a44.074667 44.074667 0 0 0 50.858667 0c40.32-28.202667 144.341333-105.557333 236.544-213.717334 51.498667-60.416 92.288-121.941333 121.045333-182.912 34.773333-73.685333 52.394667-147.498667 52.394667-219.050666a332.373333 332.373333 0 0 0-35.669334-149.248z m-44.032 149.333333c0 59.904-15.061333 122.197333-44.8 185.173333-25.557333 54.4-62.421333 109.909333-109.482666 165.12-73.472 86.186667-155.733333 152.021333-201.429334 185.6-45.696-33.706667-128-99.413333-201.429333-185.6-47.061333-55.210667-83.925333-110.805333-109.568-165.205333-29.781333-62.976-44.8-125.312-44.8-185.173333 0-39.253333 9.130667-77.568 27.306667-113.792a313.002667 313.002667 0 0 1 76.373333-96.768 374.613333 374.613333 0 0 1 114.346667-67.328 393.984 393.984 0 0 1 137.642666-24.874667h0.256c47.018667 0 93.397333 8.362667 137.557334 24.874667 42.666667 15.914667 81.152 38.570667 114.474666 67.328a307.754667 307.754667 0 0 1 76.245334 96.768 253.866667 253.866667 0 0 1 27.306666 113.92z" p-id="1384"></path></svg>