<?xml version="1.0" standalone="no"?><!DOCTYPE svg PUBLIC "-//W3C//DTD SVG 1.1//EN" "http://www.w3.org/Graphics/SVG/1.1/DTD/svg11.dtd"><svg t="1566526619384" class="icon" viewBox="0 0 1024 1024" version="1.1" xmlns="http://www.w3.org/2000/svg" p-id="1973" xmlns:xlink="http://www.w3.org/1999/xlink" width="200" height="200"><defs><style type="text/css"></style></defs><path d="M695.947636 0H95.976727C42.914909 0 0 42.914909 0 95.976727v830.650182c0 53.061818 42.914909 95.976727 95.976727 95.976727h830.650182c53.061818 0 95.976727-42.914909 95.976727-95.976727V326.516364L695.947636 0zM267.869091 95.976727h289.28V370.501818a47.941818 47.941818 0 0 1-47.941818 47.988364H315.810909a47.941818 47.941818 0 0 1-47.988364-47.941818V95.930182z m658.757818 830.650182H95.976727V95.976727h75.869091V370.501818a144.058182 144.058182 0 0 0 144.011637 144.011637h193.303272a144.058182 144.058182 0 0 0 144.011637-144.011637V95.976727h3.072l270.242909 270.289455v560.360727h0.139636zM454.516364 322.513455a47.941818 47.941818 0 0 0 47.941818-47.988364V217.181091a47.941818 47.941818 0 1 0-95.930182 0v57.344c0 26.530909 21.410909 47.988364 47.941818 47.988364z" fill="#666666" p-id="1974"></path></svg>