<?xml version="1.0" standalone="no"?><!DOCTYPE svg PUBLIC "-//W3C//DTD SVG 1.1//EN" "http://www.w3.org/Graphics/SVG/1.1/DTD/svg11.dtd"><svg t="1566526624427" class="icon" viewBox="0 0 1024 1024" version="1.1" xmlns="http://www.w3.org/2000/svg" p-id="2091" xmlns:xlink="http://www.w3.org/1999/xlink" width="200" height="200"><defs><style type="text/css"></style></defs><path d="M997.290464 559.616193L460.800021 18.347086A61.525308 61.525308 0 0 0 416.725373 0.000427H91.093509C40.874863 0.000427 0.000213 40.363077 0.000213 90.112389v334.250528c0 16.127993 6.655997 31.871987 18.090659 43.093315L553.727983 996.693345c17.237326 16.981326 40.10665 26.325322 64.383973 26.325322 24.234657 0 47.10398-9.386663 64.341306-26.325322l314.111869-310.271871a89.557296 89.557296 0 0 0 0.725333-126.762614zM77.824181 90.112389c0-6.826664 5.887998-12.330662 13.226661-12.330661h319.146534L941.823821 614.400171c2.773332 2.986665 3.413332 6.143997 3.413332 8.362663 0 1.706666-0.512 5.162665-3.583999 8.234663l-313.941202 310.314537a13.738661 13.738661 0 0 1-9.727996 3.925332 13.567994 13.567994 0 0 1-9.727996-3.925332L77.781514 417.109586V90.112389z m173.994594 28.287988a133.546611 133.546611 0 0 0-133.418611 133.418611 133.546611 133.546611 0 0 0 133.418611 133.418611 133.546611 133.546611 0 0 0 133.418611-133.418611 133.546611 133.546611 0 0 0-133.418611-133.418611z m0 189.013255a55.722643 55.722643 0 0 1-55.63731-55.594644c0-30.634654 25.002656-55.63731 55.63731-55.63731 30.634654 0 55.63731 25.002656 55.63731 55.63731 0 30.634654-25.002656 55.63731-55.63731 55.637311z" fill="#666666" p-id="2092"></path></svg>