<?xml version="1.0" standalone="no"?><!DOCTYPE svg PUBLIC "-//W3C//DTD SVG 1.1//EN" "http://www.w3.org/Graphics/SVG/1.1/DTD/svg11.dtd"><svg t="1566526596102" class="icon" viewBox="0 0 1170 1024" version="1.1" xmlns="http://www.w3.org/2000/svg" p-id="1737" xmlns:xlink="http://www.w3.org/1999/xlink" width="228.515625" height="200"><defs><style type="text/css"></style></defs><path d="M584.167619 807.740952a221.037714 221.037714 0 0 0 220.793905-220.842666 221.037714 221.037714 0 0 0-220.842667-220.793905 221.037714 221.037714 0 0 0-220.793905 220.793905 221.232762 221.232762 0 0 0 220.793905 220.891428z m-92.111238-312.905142a129.316571 129.316571 0 0 1 92.062476-38.180572c34.816 0 67.437714 13.55581 92.062476 38.180572 24.624762 24.673524 38.229333 57.295238 38.229334 92.062476 0 34.816-13.604571 67.437714-38.229334 92.062476a129.316571 129.316571 0 0 1-92.062476 38.229333 129.316571 129.316571 0 0 1-92.062476-38.229333 129.316571 129.316571 0 0 1-38.229333-92.062476c0-34.620952 13.604571-67.388952 38.229333-92.062476z m584.508952-315.782096h-213.723428L743.619048 52.565333l-0.487619-0.487619a50.029714 50.029714 0 0 0-33.938286-12.336762H460.55619c-13.06819 0-25.35619 4.583619-33.743238 12.434286l-0.292571 0.292572-119.710476 126.585904h-213.089524A80.457143 80.457143 0 0 0 13.312 259.413333v675.449905c0 44.324571 36.08381 80.359619 80.408381 80.359619h982.844952a80.457143 80.457143 0 0 0 80.408381-80.359619V259.413333a80.457143 80.457143 0 0 0-80.408381-80.359619z m-598.308571-47.006476h213.284571l44.227048 47.006476h-301.836191l44.27581-47.006476z m575.975619 780.678095H115.809524V281.697524H1054.232381v631.125333z" fill="#666666" p-id="1738"></path></svg>