<?xml version="1.0" standalone="no"?><!DOCTYPE svg PUBLIC "-//W3C//DTD SVG 1.1//EN" "http://www.w3.org/Graphics/SVG/1.1/DTD/svg11.dtd"><svg t="1566526613379" class="icon" viewBox="0 0 1163 1024" version="1.1" xmlns="http://www.w3.org/2000/svg" p-id="1855" xmlns:xlink="http://www.w3.org/1999/xlink" width="227.1484375" height="200"><defs><style type="text/css"></style></defs><path d="M1103.470778 202.938182a338.292364 338.292364 0 0 0-72.471273-109.149091C970.955869 33.28 892.154415 0 809.210415 0c-94.580364 0-183.202909 43.054545-244.363637 118.504727C503.825687 43.054545 415.203142 0 320.622778 0 237.725324 0 158.923869 33.512727 98.694051 94.487273A343.272727 343.272727 0 0 0 0.017687 338.850909c0.791273 101.143273 44.264727 195.490909 119.296 259.072 3.444364 2.839273 6.609455 5.585455 9.821091 8.610909 16.430545 14.754909 64 58.228364 124.276364 113.291637 103.144727 94.347636 231.610182 211.781818 284.113454 258.466909a41.192727 41.192727 0 0 0 54.923637 0c38.074182-33.885091 116.782545-105.844364 200.192-182.085819 81.92-74.798545 166.493091-152.296727 216.064-196.654545 76.660364-63.860364 120.925091-159.325091 121.250909-261.818182a348.113455 348.113455 0 0 0-26.484364-134.842182zM626.519505 177.012364c45.149091-58.740364 111.662545-92.392727 182.737455-92.392728 60.462545 0 117.946182 24.529455 161.978182 68.887273a252.276364 252.276364 0 0 1 54.272 81.733818 265.960727 265.960727 0 0 1-5.073455 213.643637 256.605091 256.605091 0 0 1-65.861818 85.504l-2.001454 1.768727c-42.914909 38.539636-116.317091 105.285818-217.925819 198.423273a45028.305455 45028.305455 0 0 1-169.611636 154.670545 66109.719273 66109.719273 0 0 1-223.232-203.217454l-52.177455-47.709091a18408.587636 18408.587636 0 0 0-103.936-94.766546c-0.930909-0.791273-1.768727-1.536-2.65309-2.420363-2.885818-2.56-5.864727-5.213091-9.029819-7.819637-56.32-47.802182-88.855273-118.877091-89.367272-195.025454a261.864727 261.864727 0 0 1 19.595636-101.701819A254.045091 254.045091 0 0 1 158.737687 154.251636c44.357818-44.776727 101.934545-69.352727 161.978182-69.352727 70.981818 0 137.634909 33.512727 182.737455 92.113455a77.684364 77.684364 0 0 0 123.019636 0z" fill="#666666" p-id="1856"></path></svg>