<svg viewBox="1 -62 511.99999 511" xmlns="http://www.w3.org/2000/svg"><path d="m512 175.550781v38.3125c0 40.988281-3.609375 81.800781-3.769531 83.523438l-.050781.519531c-.511719 4.027344-5.410157 39.902344-22.382813 58.355469-20.382813 22.414062-43.355469 24.84375-54.394531 26.011719-1.050782.109374-2.011719.210937-2.871094.332031l-.890625.089843c-67.6875 4.921876-169.910156 5.589844-170.929687 5.601563h-.3125c-.488282-.011719-2.027344-.03125-4.4375-.070313-23.152344-.371093-126.984376-2.191406-162.371094-5.5625l-1.191406-.160156c-1.21875-.21875-3.019532-.417968-5.097657-.660156-13.164062-1.507812-37.65625-4.308594-57.019531-25.503906-17.742188-18.648438-22.050781-54.644532-22.492188-58.695313l-.019531-.257812c-.160156-1.722657-3.769531-42.535157-3.769531-83.523438v-38.3125c0-40.984375 3.609375-81.808593 3.769531-83.53125l.050781-.519531c.511719-4.03125 5.410157-39.902344 22.382813-58.347656 20.664063-22.722656 43.753906-25.390625 54.867187-26.671875.871094-.101563 1.667969-.191407 2.390626-.289063l.910156-.089844c60.65625-4.371093 148.074218-5.390624 167.589844-5.5625 2.457031-.027343 3.839843-.039062 3.949218-.039062h.179688c1.03125.011719 103.242187.679688 170.929687 5.601562l.902344.089844c.757813.097656 1.609375.199219 2.539063.308594 11.230468 1.28125 34.582031 3.941406 55.175781 25.875 17.824219 18.632812 22.144531 55.296875 22.574219 59.414062l.019531.230469c.160156 1.722657 3.769531 42.546875 3.769531 83.53125zm0 0" fill="#ff5b5b"/><path d="m512 175.550781v38.3125c0 40.988281-3.609375 81.800781-3.769531 83.523438l-.050781.519531c-.511719 4.027344-5.410157 39.902344-22.382813 58.355469-20.382813 22.414062-43.355469 24.84375-54.394531 26.011719-1.050782.109374-2.011719.210937-2.871094.332031l-.890625.089843c-67.6875 4.921876-169.910156 5.589844-170.929687 5.601563h-.3125c-.488282-.011719-2.027344-.03125-4.4375-.070313v-387.6875c2.457031-.027343 3.839843-.039062 3.949218-.039062h.179688c1.03125.011719 103.242187.679688 170.929687 5.601562l.902344.089844c.757813.097656 1.609375.199219 2.539063.308594 11.230468 1.28125 34.582031 3.941406 55.175781 25.875 17.824219 18.632812 22.144531 55.296875 22.574219 59.414062l.019531.230469c.160156 1.722657 3.769531 42.546875 3.769531 83.53125zm0 0" fill="#ff3636"/><path d="m345.609375 189.792969c-.019531 7.628906-4.21875 14.609375-10.929687 18.222656l-82.71875 44.484375-30.394532 16.339844c-3.109375 1.671875-6.480468 2.511718-9.851562 2.511718-3.679688 0-7.339844-1-10.652344-2.96875-6.339844-3.792968-10.121094-10.460937-10.121094-17.84375v-122.714843c0-7.410157 3.8125-14.089844 10.183594-17.871094 6.378906-3.78125 14.070312-3.910156 20.570312-.359375l30.265626 16.5625 82.847656 45.332031c6.691406 3.664063 10.832031 10.683594 10.800781 18.304688zm0 0" fill="#fff"/><path d="m345.609375 189.792969c-.019531 7.628906-4.21875 14.609375-10.929687 18.222656l-82.71875 44.484375v-126.34375l82.847656 45.332031c6.691406 3.664063 10.832031 10.683594 10.800781 18.304688zm0 0" fill="#96fff6"/></svg>