<svg width="631" height="586" viewBox="0 0 631 586" fill="none" xmlns="http://www.w3.org/2000/svg">
<g clip-path="url(#clip0)">
<path d="M496.512 568.761V581.664H483.607" stroke="black" stroke-width="2.4232" stroke-linecap="round" stroke-linejoin="round"/>
<path d="M457.798 581.663H105.28" stroke="black" stroke-width="2.4232" stroke-linecap="round" stroke-linejoin="round" stroke-dasharray="7.69 7.69"/>
<path d="M92.0347 581.664H79.1294V568.761" stroke="black" stroke-width="2.4232" stroke-linecap="round" stroke-linejoin="round"/>
<path d="M79.1294 542.954V235.314C79.1294 226.146 86.6009 218.676 95.7704 218.676H480.212C489.381 218.676 496.853 226.146 496.853 235.314V555.857" stroke="black" stroke-width="2.4232" stroke-linecap="round" stroke-linejoin="round" stroke-dasharray="7.55 7.55"/>
<path d="M630.999 473.005H213.615V126.655C213.615 117.487 221.087 110.017 230.256 110.017H614.698C623.867 110.017 631.339 117.487 631.339 126.655V473.005H630.999Z" fill="#269A5A"/>
<path d="M548.135 530.05H130.751V184.04C130.751 174.872 138.222 167.402 147.392 167.402H531.833C541.003 167.402 548.474 174.872 548.474 184.04V530.05H548.135Z" fill="white" stroke="black" stroke-width="2.4232" stroke-miterlimit="10" stroke-linecap="round" stroke-linejoin="round"/>
<path d="M548.135 237.69H130.751V184.04C130.751 174.872 138.222 167.402 147.392 167.402H531.833C541.003 167.402 548.474 174.872 548.474 184.04V237.69H548.135Z" fill="#F1F6F8" stroke="black" stroke-width="2.4232" stroke-miterlimit="10" stroke-linecap="round" stroke-linejoin="round"/>
<path d="M277.464 423.09L295.803 473.345" stroke="black" stroke-width="2.4232" stroke-miterlimit="10" stroke-linecap="round" stroke-linejoin="round"/>
<path d="M297.161 419.355L314.142 466.554" stroke="black" stroke-width="2.4232" stroke-miterlimit="10" stroke-linecap="round" stroke-linejoin="round"/>
<path d="M315.5 425.467L268.294 442.785" stroke="black" stroke-width="2.4232" stroke-miterlimit="10" stroke-linecap="round" stroke-linejoin="round"/>
<path d="M322.293 443.803L278.144 459.762" stroke="black" stroke-width="2.4232" stroke-miterlimit="10" stroke-linecap="round" stroke-linejoin="round"/>
<path d="M353.197 351.105L391.234 388.117" stroke="black" stroke-width="2.7044" stroke-miterlimit="10" stroke-linecap="round"/>
<path d="M353.537 388.455L390.554 350.425" stroke="black" stroke-width="2.7044" stroke-miterlimit="10" stroke-linecap="round"/>
<path d="M446.59 349.746L484.627 386.758" stroke="black" stroke-width="2.7044" stroke-miterlimit="10" stroke-linecap="round"/>
<path d="M447.271 387.436L484.289 349.406" stroke="black" stroke-width="2.7044" stroke-miterlimit="10" stroke-linecap="round"/>
<path d="M351.16 508.998C350.82 470.628 381.385 439.389 419.762 439.049C458.138 438.71 489.382 469.27 489.722 507.64L351.16 508.998Z" fill="#F1F6F8"/>
<path d="M351.16 508.998C350.82 470.628 381.385 439.389 419.762 439.049C458.138 438.71 489.382 469.27 489.722 507.64L351.16 508.998Z" stroke="black" stroke-width="2.4232" stroke-miterlimit="10" stroke-linecap="round" stroke-linejoin="round"/>
<path d="M452.365 557.895C440.818 557.895 431.309 548.727 431.309 537.182L430.969 497.453L472.402 497.114L472.741 536.842C473.081 548.387 463.911 557.895 452.365 557.895Z" fill="#FEAAA8"/>
<path d="M452.365 557.895C440.818 557.895 431.309 548.727 431.309 537.182L430.969 497.453L472.402 497.114L472.741 536.842C473.081 548.387 463.911 557.895 452.365 557.895Z" stroke="black" stroke-width="2.4232" stroke-miterlimit="10" stroke-linecap="round" stroke-linejoin="round"/>
<path d="M179.655 205.433C179.655 210.526 175.58 214.601 170.485 214.601C165.391 214.601 161.316 210.526 161.316 205.433C161.316 200.339 165.391 196.264 170.485 196.264C175.58 196.264 179.655 200.339 179.655 205.433Z" fill="#FFCA04"/>
<path d="M224.143 205.433C224.143 210.526 220.068 214.601 214.974 214.601C209.88 214.601 205.804 210.526 205.804 205.433C205.804 200.339 209.88 196.264 214.974 196.264C220.068 196.264 224.143 200.339 224.143 205.433Z" fill="#FEAAA8"/>
<path d="M268.973 205.433C268.973 210.526 264.897 214.601 259.803 214.601C254.709 214.601 250.634 210.526 250.634 205.433C250.634 200.339 254.709 196.264 259.803 196.264C264.897 196.264 268.973 200.339 268.973 205.433Z" fill="#B1DAFF"/>
<path d="M170.485 196.265C175.579 196.265 179.655 200.339 179.655 205.433C179.655 210.526 175.579 214.601 170.485 214.601C165.391 214.601 161.316 210.526 161.316 205.433C161.316 200.339 165.391 196.265 170.485 196.265ZM170.485 192.19C163.014 192.19 157.24 198.302 157.24 205.433C157.24 212.903 163.353 218.675 170.485 218.675C177.957 218.675 183.73 212.563 183.73 205.433C183.73 198.302 177.617 192.19 170.485 192.19Z" fill="black"/>
<path d="M214.974 196.265C220.068 196.265 224.143 200.339 224.143 205.433C224.143 210.526 220.068 214.601 214.974 214.601C209.879 214.601 205.804 210.526 205.804 205.433C206.144 200.339 210.219 196.265 214.974 196.265ZM214.974 192.19C207.502 192.19 201.729 198.302 201.729 205.433C201.729 212.903 207.842 218.675 214.974 218.675C222.445 218.675 228.219 212.563 228.219 205.433C228.558 198.302 222.445 192.19 214.974 192.19Z" fill="black"/>
<path d="M259.803 196.265C264.897 196.265 268.972 200.339 268.972 205.433C268.972 210.526 264.897 214.601 259.803 214.601C254.709 214.601 250.633 210.526 250.633 205.433C250.633 200.339 254.709 196.265 259.803 196.265ZM259.803 192.19C252.331 192.19 246.558 198.302 246.558 205.433C246.558 212.903 252.671 218.675 259.803 218.675C266.935 218.675 273.048 212.563 273.048 205.433C273.387 198.302 267.274 192.19 259.803 192.19Z" fill="black"/>
<path d="M1.69605 57.725C-0.0020169 52.2921 -0.341629 46.5196 -0.00201682 41.0867C0.677208 35.6537 2.71488 30.5604 5.43178 25.467C8.14868 20.3736 12.224 15.9593 17.6578 11.8846C24.4501 6.79126 30.5631 3.39567 36.6761 1.69788C42.7892 8.73441e-05 47.8833 -0.339471 52.9775 0.339646C58.0717 1.01876 62.1471 2.377 65.8828 4.75391C69.6185 7.13082 72.3354 9.50773 74.3731 12.2242C77.7692 16.6385 80.1465 21.0527 81.1654 24.7879C82.1842 28.523 82.8634 32.2582 82.5238 35.6537C82.5238 39.0493 81.8446 42.4449 80.8258 45.5009C79.8069 48.557 78.7881 51.613 78.1089 54.669C77.4296 57.725 77.09 60.4415 77.09 63.4975C77.09 66.5536 78.1089 69.6096 79.8069 72.6656L83.8823 78.0986L64.5244 93.0391L59.4302 86.5875C56.7133 82.1733 54.6756 78.0986 53.9964 74.3634C53.3171 70.6283 52.9775 67.2327 52.9775 63.8371C53.3171 60.4415 53.6568 57.3855 54.6756 54.669C55.3548 51.613 56.034 48.8965 56.7133 46.1801C57.3925 43.4636 57.3925 41.0867 57.0529 38.3702C56.7133 35.9933 55.6944 33.2768 53.3171 30.8999C49.921 26.4857 46.5249 24.1087 42.7892 23.7692C39.0534 23.7692 35.3177 24.7879 31.5819 27.8439C28.865 29.8812 27.167 31.9186 25.8085 34.2955C24.7897 36.6724 24.1105 39.3889 24.4501 41.7658C24.4501 44.4823 25.1293 46.8592 26.1481 49.5756C27.167 52.2921 28.865 55.0086 30.9027 57.3855L9.84675 73.3447C6.11101 68.5909 3.39411 63.158 1.69605 57.725ZM91.6934 85.9084L108.674 107.98L86.2596 125.297L69.2789 103.226L91.6934 85.9084Z" fill="#5A6270"/>
<path d="M17.9978 184.04C14.9413 182.343 12.2244 180.305 10.1867 177.589C8.14903 174.872 6.79058 172.156 5.77174 168.76C4.75291 165.365 4.75291 161.63 5.09252 157.894C5.77174 152.801 7.13019 148.726 8.82826 145.331C10.5263 142.275 12.9036 139.558 15.2809 137.86C17.6582 136.163 20.0355 134.804 22.7524 134.125C25.1297 133.446 27.5069 133.446 29.5446 133.786C32.9407 134.125 35.6576 135.144 37.6953 136.163C39.733 137.521 41.4311 138.879 42.7895 140.237C44.148 141.935 45.5064 143.293 46.1856 145.331C47.2045 147.029 47.8837 148.726 48.9025 150.424C49.9214 152.122 50.9402 153.48 52.2986 154.838C53.6571 156.197 55.3552 157.215 57.3928 157.555L61.4682 158.234L59.4305 172.835L54.6759 172.156C51.6194 171.477 49.2421 170.458 47.2045 169.439C45.1668 168.081 43.4687 166.723 42.4499 165.365C41.0914 164.007 40.0726 162.309 39.0538 160.611C38.0349 158.913 37.3557 157.555 36.3369 156.197C35.318 154.838 34.2992 153.82 33.2804 152.801C31.9219 151.782 30.5635 151.443 28.5258 151.103C25.1297 150.764 22.7524 151.103 21.0543 152.462C19.3562 153.82 18.3374 155.857 17.6582 158.913C17.3186 160.95 17.6582 162.648 17.9978 164.007C18.677 165.365 19.3562 166.723 20.7147 167.742C21.7335 168.76 23.092 169.779 24.79 170.458C26.4881 171.137 28.1862 171.477 30.2238 171.816L28.1862 187.776C24.4504 187.097 21.0543 185.738 17.9978 184.04ZM68.2604 157.894L84.9014 159.932L82.5242 176.91L65.8831 174.872L68.2604 157.894Z" fill="#5A6270"/>
<path d="M134.147 56.0271C135.505 52.6315 137.203 49.915 139.241 47.5381C141.618 45.1612 144.335 43.1239 147.392 41.7656C150.448 40.4074 154.184 39.7283 158.259 39.7283C163.353 39.7283 167.768 40.4074 171.165 41.7656C174.561 43.1239 177.278 44.8217 179.655 46.859C181.693 48.8964 183.391 51.2733 184.409 53.6502C185.428 56.0271 185.768 58.404 185.768 60.4413C185.768 63.8369 185.428 66.893 184.409 68.9303C183.391 71.3072 182.372 73.005 181.013 74.7028C179.655 76.4006 178.296 77.7588 176.598 78.7775C174.9 79.7962 173.542 81.1544 172.183 82.1731C170.825 83.1918 169.466 84.55 168.448 85.9082C167.429 87.2665 166.75 89.3038 166.41 91.3412V95.4159L151.807 95.7554V91.0016C152.146 87.9456 152.486 85.2291 153.505 83.1918C154.524 81.1544 155.542 79.1171 156.901 77.7588C158.259 76.4006 159.618 75.0424 160.976 74.0237C162.335 73.005 163.693 71.9863 165.052 70.6281C166.41 69.6094 167.089 68.2512 168.108 66.893C168.787 65.5347 169.127 63.8369 169.127 62.1391C169.127 58.7435 168.108 56.3666 166.75 54.6688C165.052 52.9711 162.674 52.2919 159.957 52.2919C157.92 52.2919 156.222 52.6315 154.863 53.6502C153.505 54.3293 152.486 55.348 151.467 56.7062C150.448 58.0644 149.769 59.4227 149.429 61.1205C149.09 62.8183 148.75 64.516 148.75 66.5534L132.449 66.893C132.449 63.1578 133.128 59.4227 134.147 56.0271ZM167.429 102.207L167.768 118.845L150.788 119.185L150.448 102.547L167.429 102.207Z" fill="#5A6270"/>
<path d="M268.199 126.046H269.122C263.954 111.262 249.925 100.728 233.498 100.728C217.07 100.728 203.226 111.262 197.873 126.046H194.735C183.106 126.046 173.693 135.471 173.693 147.114V152.288H289.242V147.114C289.426 135.656 279.828 126.046 268.199 126.046Z" fill="white" stroke="black" stroke-width="2.4232" stroke-miterlimit="10" stroke-linecap="round" stroke-linejoin="round"/>
<path d="M265.615 128.264H266.353C262.662 117.73 252.694 110.153 241.066 110.153C229.252 110.153 219.469 117.73 215.593 128.264H213.378C205.072 128.264 198.242 135.102 198.242 143.418V147.114H280.566V143.418C280.566 134.917 273.921 128.264 265.615 128.264Z" fill="#B1DAFF"/>
<path d="M96.5369 527.992H97.4598C92.2915 513.208 78.2631 502.674 61.8352 502.674C45.4073 502.674 31.5636 513.208 26.2107 527.992H23.0728C11.444 527.992 2.03027 537.417 2.03027 549.06V554.234H117.579V549.06C117.764 537.417 108.166 527.992 96.5369 527.992Z" fill="white" stroke="black" stroke-width="2.4232" stroke-miterlimit="10" stroke-linecap="round" stroke-linejoin="round"/>
<path d="M93.9527 530.025H94.691C90.9994 519.491 81.0319 511.914 69.2186 511.914C57.4052 511.914 47.6223 519.491 43.7461 530.025H41.5311C33.2248 530.025 26.3953 536.863 26.3953 545.179V548.875H108.904V545.179C108.904 536.678 102.259 530.025 93.9527 530.025Z" fill="#B1DAFF"/>
<path d="M573.131 282.204H574.054C568.885 267.42 554.857 256.886 538.429 256.886C522.001 256.886 508.157 267.42 502.804 282.204H499.667C488.038 282.204 478.624 291.629 478.624 303.272V308.446H594.173V303.272C594.173 291.629 584.759 282.204 573.131 282.204Z" fill="white" stroke="black" stroke-width="2.4232" stroke-miterlimit="10" stroke-linecap="round" stroke-linejoin="round"/>
<path d="M570.362 284.237H571.1C567.409 273.704 557.441 266.127 545.812 266.127C533.999 266.127 524.216 273.704 520.34 284.237H518.125C509.819 284.237 502.989 291.075 502.989 299.391V303.087H585.498V299.391C585.313 290.89 578.668 284.237 570.362 284.237Z" fill="#B1DAFF"/>
</g>
<defs>
<clipPath id="clip0">
<rect width="631" height="585.738" fill="white"/>
</clipPath>
</defs>
</svg>
